<mxfile host="drawio-plugin" modified="2021-04-15T16:34:49.103Z" agent="5.0 (Macintosh; Intel Mac OS X 10_16_0) AppleWebKit/537.36 (KHTML, like Gecko) Chrome/84.0.4147.105 Safari/537.36" etag="L_NnhxYlXRtmuASdYBQF" version="13.7.9" type="embed"><diagram id="8alHltW25RJEVJUQ3hZO" name="Page-1"><mxGraphModel dx="904" dy="464" grid="1" gridSize="10" guides="1" tooltips="1" connect="1" arrows="1" fold="1" page="1" pageScale="1" pageWidth="827" pageHeight="1169" math="0" shadow="0"><root><mxCell id="0"/><mxCell id="1" parent="0"/><mxCell id="x-bsae5Bd4LSXcBbeM6l-4" value="" style="verticalLabelPosition=bottom;verticalAlign=top;html=1;shape=mxgraph.basic.patternFillRect;fillStyle=diag;step=5;fillStrokeWidth=0.2;fillStrokeColor=#dddddd;fillColor=#eeeeee;strokeColor=#36393d;" parent="1" vertex="1"><mxGeometry x="60" y="460" width="400" height="130" as="geometry"/></mxCell><mxCell id="tJcewB6zyTgyc0e0xxYA-6" style="edgeStyle=orthogonalEdgeStyle;rounded=0;orthogonalLoop=1;jettySize=auto;html=1;" parent="1" source="tJcewB6zyTgyc0e0xxYA-1" target="tJcewB6zyTgyc0e0xxYA-2" edge="1"><mxGeometry relative="1" as="geometry"/></mxCell><mxCell id="tJcewB6zyTgyc0e0xxYA-1" value="pressmind&lt;br&gt;PIM" style="whiteSpace=wrap;html=1;aspect=fixed;" parent="1" vertex="1"><mxGeometry x="224" y="326" width="80" height="80" as="geometry"/></mxCell><mxCell id="tJcewB6zyTgyc0e0xxYA-7" style="edgeStyle=orthogonalEdgeStyle;rounded=0;orthogonalLoop=1;jettySize=auto;html=1;exitX=0.5;exitY=1;exitDx=0;exitDy=0;" parent="1" source="tJcewB6zyTgyc0e0xxYA-2" target="tJcewB6zyTgyc0e0xxYA-4" edge="1"><mxGeometry relative="1" as="geometry"><mxPoint x="450" y="560" as="sourcePoint"/><Array as="points"><mxPoint x="264" y="640"/><mxPoint x="450" y="640"/></Array></mxGeometry></mxCell><mxCell id="tJcewB6zyTgyc0e0xxYA-2" value="pressmind&lt;br&gt;web-core" style="whiteSpace=wrap;html=1;aspect=fixed;" parent="1" vertex="1"><mxGeometry x="224" y="480" width="80" height="80" as="geometry"/></mxCell><mxCell id="tJcewB6zyTgyc0e0xxYA-5" style="edgeStyle=orthogonalEdgeStyle;rounded=0;orthogonalLoop=1;jettySize=auto;html=1;exitX=0;exitY=0.5;exitDx=0;exitDy=0;entryX=1;entryY=0.5;entryDx=0;entryDy=0;" parent="1" source="tJcewB6zyTgyc0e0xxYA-3" target="x-bsae5Bd4LSXcBbeM6l-1" edge="1"><mxGeometry relative="1" as="geometry"><Array as="points"><mxPoint x="510" y="520"/><mxPoint x="510" y="520"/></Array></mxGeometry></mxCell><mxCell id="tJcewB6zyTgyc0e0xxYA-3" value="tour operator&lt;br&gt;reservation&amp;nbsp;&lt;br&gt;system" style="whiteSpace=wrap;html=1;aspect=fixed;" parent="1" vertex="1"><mxGeometry x="590" y="480" width="80" height="80" as="geometry"/></mxCell><mxCell id="tJcewB6zyTgyc0e0xxYA-4" value="pressmind&amp;nbsp;&lt;br&gt;IBE" style="whiteSpace=wrap;html=1;aspect=fixed;" parent="1" vertex="1"><mxGeometry x="410" y="690" width="80" height="80" as="geometry"/></mxCell><mxCell id="tJcewB6zyTgyc0e0xxYA-8" value="" style="pointerEvents=1;shadow=0;dashed=0;html=1;strokeColor=none;labelPosition=center;verticalLabelPosition=bottom;verticalAlign=top;align=center;fillColor=#505050;shape=mxgraph.mscae.intune.user_group" parent="1" vertex="1"><mxGeometry x="335" y="879" width="50" height="37" as="geometry"/></mxCell><mxCell id="tJcewB6zyTgyc0e0xxYA-10" value="" style="pointerEvents=1;shadow=0;dashed=0;html=1;strokeColor=none;labelPosition=center;verticalLabelPosition=bottom;verticalAlign=top;align=center;fillColor=#505050;shape=mxgraph.mscae.intune.user_group" parent="1" vertex="1"><mxGeometry x="414" y="170" width="50" height="37" as="geometry"/></mxCell><mxCell id="tJcewB6zyTgyc0e0xxYA-11" value="tour operator travel shop" style="whiteSpace=wrap;html=1;aspect=fixed;" parent="1" vertex="1"><mxGeometry x="224" y="690" width="80" height="80" as="geometry"/></mxCell><mxCell id="tJcewB6zyTgyc0e0xxYA-12" style="edgeStyle=orthogonalEdgeStyle;rounded=0;orthogonalLoop=1;jettySize=auto;html=1;exitX=1;exitY=0.5;exitDx=0;exitDy=0;entryX=0;entryY=0.5;entryDx=0;entryDy=0;" parent="1" source="tJcewB6zyTgyc0e0xxYA-11" target="tJcewB6zyTgyc0e0xxYA-4" edge="1"><mxGeometry relative="1" as="geometry"><mxPoint x="314" y="580" as="sourcePoint"/><mxPoint x="460" y="670" as="targetPoint"/></mxGeometry></mxCell><mxCell id="tJcewB6zyTgyc0e0xxYA-13" style="edgeStyle=orthogonalEdgeStyle;rounded=0;orthogonalLoop=1;jettySize=auto;html=1;entryX=0.5;entryY=0;entryDx=0;entryDy=0;exitX=0.5;exitY=1;exitDx=0;exitDy=0;" parent="1" source="tJcewB6zyTgyc0e0xxYA-2" target="tJcewB6zyTgyc0e0xxYA-11" edge="1"><mxGeometry relative="1" as="geometry"><mxPoint x="260" y="580" as="sourcePoint"/><mxPoint x="274" y="500" as="targetPoint"/></mxGeometry></mxCell><mxCell id="tJcewB6zyTgyc0e0xxYA-14" value="Deeplink" style="text;html=1;strokeColor=none;fillColor=none;align=center;verticalAlign=middle;whiteSpace=wrap;rounded=0;" parent="1" vertex="1"><mxGeometry x="335" y="730" width="40" height="20" as="geometry"/></mxCell><mxCell id="tJcewB6zyTgyc0e0xxYA-15" value="bookable &lt;br&gt;and none bookable data&lt;br&gt;(used for product presentation)" style="text;html=1;strokeColor=none;fillColor=none;align=right;verticalAlign=middle;whiteSpace=wrap;rounded=0;" parent="1" vertex="1"><mxGeometry x="60" y="630" width="190" height="20" as="geometry"/></mxCell><mxCell id="tJcewB6zyTgyc0e0xxYA-16" value="bookable data (realtime)" style="text;html=1;strokeColor=none;fillColor=none;align=left;verticalAlign=middle;whiteSpace=wrap;rounded=0;" parent="1" vertex="1"><mxGeometry x="289" y="640" width="190" height="20" as="geometry"/></mxCell><mxCell id="tJcewB6zyTgyc0e0xxYA-18" style="edgeStyle=orthogonalEdgeStyle;rounded=0;orthogonalLoop=1;jettySize=auto;html=1;exitX=1;exitY=0.5;exitDx=0;exitDy=0;entryX=0.5;entryY=1;entryDx=0;entryDy=0;startArrow=none;startFill=0;" parent="1" source="tJcewB6zyTgyc0e0xxYA-4" target="tJcewB6zyTgyc0e0xxYA-3" edge="1"><mxGeometry relative="1" as="geometry"><mxPoint x="564" y="680" as="sourcePoint"/><mxPoint x="670" y="680" as="targetPoint"/></mxGeometry></mxCell><mxCell id="tJcewB6zyTgyc0e0xxYA-19" value="realtime booking" style="text;html=1;strokeColor=none;fillColor=none;align=left;verticalAlign=middle;whiteSpace=wrap;rounded=0;" parent="1" vertex="1"><mxGeometry x="510" y="710" width="110" height="20" as="geometry"/></mxCell><mxCell id="tJcewB6zyTgyc0e0xxYA-20" value="customer" style="text;html=1;strokeColor=none;fillColor=none;align=center;verticalAlign=middle;whiteSpace=wrap;rounded=0;" parent="1" vertex="1"><mxGeometry x="340" y="926" width="40" height="20" as="geometry"/></mxCell><mxCell id="tJcewB6zyTgyc0e0xxYA-22" value="bookable data" style="text;html=1;align=center;verticalAlign=middle;resizable=0;points=[];autosize=1;" parent="1" vertex="1"><mxGeometry x="475" y="500" width="90" height="20" as="geometry"/></mxCell><mxCell id="tJcewB6zyTgyc0e0xxYA-25" value="wonderful travel descriptions" style="text;html=1;align=center;verticalAlign=middle;resizable=0;points=[];autosize=1;" parent="1" vertex="1"><mxGeometry x="179" y="274" width="170" height="20" as="geometry"/></mxCell><mxCell id="tJcewB6zyTgyc0e0xxYA-26" value="bookable products" style="text;html=1;align=center;verticalAlign=middle;resizable=0;points=[];autosize=1;" parent="1" vertex="1"><mxGeometry x="575" y="274" width="110" height="20" as="geometry"/></mxCell><mxCell id="tJcewB6zyTgyc0e0xxYA-27" value="&lt;span&gt;tour operator&lt;/span&gt;" style="text;html=1;align=center;verticalAlign=middle;resizable=0;points=[];autosize=1;" parent="1" vertex="1"><mxGeometry x="401" y="207" width="80" height="20" as="geometry"/></mxCell><mxCell id="tJcewB6zyTgyc0e0xxYA-28" style="edgeStyle=orthogonalEdgeStyle;rounded=0;orthogonalLoop=1;jettySize=auto;html=1;exitX=0.5;exitY=0.95;exitDx=0;exitDy=0;exitPerimeter=0;" parent="1" source="tJcewB6zyTgyc0e0xxYA-27" target="tJcewB6zyTgyc0e0xxYA-25" edge="1"><mxGeometry relative="1" as="geometry"><mxPoint x="600" y="364" as="sourcePoint"/><mxPoint x="314" y="364" as="targetPoint"/></mxGeometry></mxCell><mxCell id="tJcewB6zyTgyc0e0xxYA-30" style="edgeStyle=orthogonalEdgeStyle;rounded=0;orthogonalLoop=1;jettySize=auto;html=1;exitX=0.5;exitY=1.05;exitDx=0;exitDy=0;exitPerimeter=0;" parent="1" source="tJcewB6zyTgyc0e0xxYA-27" target="tJcewB6zyTgyc0e0xxYA-26" edge="1"><mxGeometry relative="1" as="geometry"><mxPoint x="451" y="236" as="sourcePoint"/><mxPoint x="284" y="284" as="targetPoint"/></mxGeometry></mxCell><mxCell id="tJcewB6zyTgyc0e0xxYA-32" value="pressmind channel (push)" style="text;html=1;align=center;verticalAlign=middle;resizable=0;points=[];autosize=1;" parent="1" vertex="1"><mxGeometry x="263" y="420" width="150" height="20" as="geometry"/></mxCell><mxCell id="tJcewB6zyTgyc0e0xxYA-34" value="creates" style="text;html=1;align=center;verticalAlign=middle;resizable=0;points=[];autosize=1;" parent="1" vertex="1"><mxGeometry x="340" y="227" width="50" height="20" as="geometry"/></mxCell><mxCell id="tJcewB6zyTgyc0e0xxYA-35" value="creates" style="text;html=1;align=center;verticalAlign=middle;resizable=0;points=[];autosize=1;" parent="1" vertex="1"><mxGeometry x="515" y="227" width="50" height="20" as="geometry"/></mxCell><mxCell id="tJcewB6zyTgyc0e0xxYA-36" style="edgeStyle=orthogonalEdgeStyle;rounded=0;orthogonalLoop=1;jettySize=auto;html=1;exitX=0.5;exitY=0;exitDx=0;exitDy=0;exitPerimeter=0;startArrow=classic;startFill=1;" parent="1" source="tJcewB6zyTgyc0e0xxYA-8" target="tJcewB6zyTgyc0e0xxYA-38" edge="1"><mxGeometry relative="1" as="geometry"><mxPoint x="451" y="341" as="sourcePoint"/><mxPoint x="264" y="819" as="targetPoint"/><Array as="points"><mxPoint x="360" y="849"/><mxPoint x="264" y="849"/></Array></mxGeometry></mxCell><mxCell id="tJcewB6zyTgyc0e0xxYA-37" style="edgeStyle=orthogonalEdgeStyle;rounded=0;orthogonalLoop=1;jettySize=auto;html=1;exitX=0.5;exitY=0;exitDx=0;exitDy=0;exitPerimeter=0;startArrow=classicThin;startFill=1;" parent="1" source="tJcewB6zyTgyc0e0xxYA-8" target="tJcewB6zyTgyc0e0xxYA-39" edge="1"><mxGeometry relative="1" as="geometry"><mxPoint x="354" y="889" as="sourcePoint"/><mxPoint x="450" y="819" as="targetPoint"/><Array as="points"><mxPoint x="360" y="849"/><mxPoint x="450" y="849"/></Array></mxGeometry></mxCell><mxCell id="tJcewB6zyTgyc0e0xxYA-38" value="inspires" style="text;html=1;align=center;verticalAlign=middle;resizable=0;points=[];autosize=1;" parent="1" vertex="1"><mxGeometry x="234" y="790" width="60" height="20" as="geometry"/></mxCell><mxCell id="tJcewB6zyTgyc0e0xxYA-39" value="books" style="text;html=1;align=center;verticalAlign=middle;resizable=0;points=[];autosize=1;" parent="1" vertex="1"><mxGeometry x="425" y="790" width="50" height="20" as="geometry"/></mxCell><mxCell id="tJcewB6zyTgyc0e0xxYA-40" style="edgeStyle=orthogonalEdgeStyle;rounded=0;orthogonalLoop=1;jettySize=auto;html=1;entryX=0.5;entryY=1;entryDx=0;entryDy=0;" parent="1" target="tJcewB6zyTgyc0e0xxYA-11" edge="1"><mxGeometry relative="1" as="geometry"><mxPoint x="264" y="790" as="sourcePoint"/><mxPoint x="274" y="810" as="targetPoint"/></mxGeometry></mxCell><mxCell id="tJcewB6zyTgyc0e0xxYA-41" style="edgeStyle=orthogonalEdgeStyle;rounded=0;orthogonalLoop=1;jettySize=auto;html=1;entryX=0.5;entryY=1;entryDx=0;entryDy=0;" parent="1" edge="1"><mxGeometry relative="1" as="geometry"><mxPoint x="449.5" y="790" as="sourcePoint"/><mxPoint x="449.5" y="770" as="targetPoint"/></mxGeometry></mxCell><mxCell id="tJcewB6zyTgyc0e0xxYA-48" value="" style="endArrow=classic;html=1;entryX=0.5;entryY=0;entryDx=0;entryDy=0;" parent="1" source="tJcewB6zyTgyc0e0xxYA-25" target="tJcewB6zyTgyc0e0xxYA-1" edge="1"><mxGeometry width="50" height="50" relative="1" as="geometry"><mxPoint x="263.83" y="296" as="sourcePoint"/><mxPoint x="263.83" y="316" as="targetPoint"/></mxGeometry></mxCell><mxCell id="tJcewB6zyTgyc0e0xxYA-49" value="" style="endArrow=classic;html=1;entryX=0.5;entryY=0;entryDx=0;entryDy=0;exitX=0.482;exitY=1.05;exitDx=0;exitDy=0;exitPerimeter=0;" parent="1" source="tJcewB6zyTgyc0e0xxYA-26" target="tJcewB6zyTgyc0e0xxYA-3" edge="1"><mxGeometry width="50" height="50" relative="1" as="geometry"><mxPoint x="629.8299999999999" y="328" as="sourcePoint"/><mxPoint x="629.8299999999999" y="360" as="targetPoint"/></mxGeometry></mxCell><mxCell id="tJcewB6zyTgyc0e0xxYA-50" value="newsletter&amp;nbsp;&lt;br&gt;system" style="whiteSpace=wrap;html=1;aspect=fixed;" parent="1" vertex="1"><mxGeometry x="590" y="810" width="80" height="80" as="geometry"/></mxCell><mxCell id="tJcewB6zyTgyc0e0xxYA-51" style="edgeStyle=orthogonalEdgeStyle;rounded=0;orthogonalLoop=1;jettySize=auto;html=1;exitX=1;exitY=0.5;exitDx=0;exitDy=0;entryX=0;entryY=0.5;entryDx=0;entryDy=0;startArrow=none;startFill=0;" parent="1" source="tJcewB6zyTgyc0e0xxYA-4" target="tJcewB6zyTgyc0e0xxYA-50" edge="1"><mxGeometry relative="1" as="geometry"><mxPoint x="500" y="740" as="sourcePoint"/><mxPoint x="640" y="490" as="targetPoint"/></mxGeometry></mxCell><mxCell id="tJcewB6zyTgyc0e0xxYA-52" value="newsletter registration&lt;br&gt;(POST Request)" style="text;html=1;strokeColor=none;fillColor=none;align=left;verticalAlign=middle;whiteSpace=wrap;rounded=0;" parent="1" vertex="1"><mxGeometry x="559" y="770" width="200" height="20" as="geometry"/></mxCell><mxCell id="x-bsae5Bd4LSXcBbeM6l-3" value="" style="edgeStyle=orthogonalEdgeStyle;rounded=0;orthogonalLoop=1;jettySize=auto;html=1;" parent="1" source="x-bsae5Bd4LSXcBbeM6l-1" target="tJcewB6zyTgyc0e0xxYA-2" edge="1"><mxGeometry relative="1" as="geometry"/></mxCell><mxCell id="x-bsae5Bd4LSXcBbeM6l-1" value="custom import&lt;br&gt;process" style="whiteSpace=wrap;html=1;aspect=fixed;" parent="1" vertex="1"><mxGeometry x="340" y="480" width="80" height="80" as="geometry"/></mxCell><UserObject label="https://github.com/pressmind/web-core-skeleton-basic" link="https://github.com/pressmind/web-core-skeleton-basic" id="x-bsae5Bd4LSXcBbeM6l-6"><mxCell style="text;whiteSpace=wrap;html=1;" parent="1" vertex="1"><mxGeometry x="82" y="565" width="310" height="30" as="geometry"/></mxCell></UserObject><mxCell id="x-bsae5Bd4LSXcBbeM6l-7" value="" style="shape=image;html=1;verticalAlign=top;verticalLabelPosition=bottom;labelBackgroundColor=#ffffff;imageAspect=0;aspect=fixed;image=https://cdn1.iconfinder.com/data/icons/logotypes/32/github-128.png" parent="1" vertex="1"><mxGeometry x="65" y="569.5" width="15" height="15" as="geometry"/></mxCell><mxCell id="x-bsae5Bd4LSXcBbeM6l-17" value="other channels like&lt;br&gt;catalogs, newsletter, etc.." style="whiteSpace=wrap;html=1;aspect=fixed;strokeColor=#CCCCCC;fontColor=#CCCCCC;" parent="1" vertex="1"><mxGeometry x="60" y="326" width="80" height="80" as="geometry"/></mxCell><mxCell id="x-bsae5Bd4LSXcBbeM6l-18" value="" style="endArrow=classic;html=1;entryX=1;entryY=0.5;entryDx=0;entryDy=0;exitX=0;exitY=0.5;exitDx=0;exitDy=0;strokeColor=#CCCCCC;" parent="1" source="tJcewB6zyTgyc0e0xxYA-1" target="x-bsae5Bd4LSXcBbeM6l-17" edge="1"><mxGeometry width="50" height="50" relative="1" as="geometry"><mxPoint x="274" y="304" as="sourcePoint"/><mxPoint x="274" y="336" as="targetPoint"/></mxGeometry></mxCell><mxCell id="x-bsae5Bd4LSXcBbeM6l-19" value="this repo" style="html=1;shadow=0;dashed=0;shape=mxgraph.bootstrap.rrect;rSize=5;strokeColor=none;strokeWidth=1;fillColor=#DB2843;fontColor=#FFFFFF;whiteSpace=wrap;align=center;verticalAlign=middle;spacingLeft=0;fontStyle=1;fontSize=12;spacing=5;" parent="1" vertex="1"><mxGeometry x="65" y="470" width="65" height="20" as="geometry"/></mxCell></root></mxGraphModel></diagram></mxfile>